# xmcd
#
# Track frame offsets: 
#        150
#        22362
#        50462
#        65362
#        89242
#        111610
#        138205
#        171400
#        191872
#        206937
#        244725
#        261600
#
# Disc length: 3754 seconds
#
# Revision: 2
# Processed by: cddbd v1.5.2PL0 Copyright (c) Steve Scherf et al.
# Submitted via: ExactAudioCopy v0.95a5
#
DISCID=cc0ea80c
DTITLE=John Patitucci - Songs, Stories and Spirituals
DYEAR=2003
DGENRE=Jazz
TTITLE0=Tall Tale
TTITLE1=Chovendo Na Roseira
TTITLE2=I Will Arise
TTITLE3=Lei
TTITLE4=In the Bleak Midwinter
TTITLE5=Three Faces
TTITLE6=Now The River
TTITLE7=Soulmate
TTITLE8=Rhapsodic Journey
TTITLE9=It Never Entered My Mind
TTITLE10=Love Eternal
TTITLE11=Wise One
EXTD=YEAR: 2003
EXTT0=
EXTT1=
EXTT2=
EXTT3=
EXTT4=
EXTT5=
EXTT6=
EXTT7=
EXTT8=
EXTT9=
EXTT10=
EXTT11=
PLAYORDER=
